#!OML:ASF F:\VICON\USERDATA\INSTALL\rory3\rory3.ASF
:FULLY-SPECIFIED
:DEGREES
346
root -7.09277 16.3315 -0.332392 57.7266 -3.56279 -40.4801
lowerback 15.6451 -3.1148 -5.10121
upperback -1.06598 -5.59696 -5.11326
thorax -10.016 -2.54116 -1.33974
lowerneck -27.2118 -2.48569 -9.15481
upperneck 13.3068 -4.48893 21.6507
head 9.55966 -0.221643 8.66961
rclavicle 5.725e-014 5.08889e-014
rhumerus -17.9417 -19.4039 0.304424
rradius 33.5637
rwrist 6.06944
rhand -29.0285 -63.7737
rfingers 7.12502
rthumb -2.37922 -1706.26
lclavicle 5.725e-014 5.08889e-014
lhumerus -11.0803 -12.3087 19.4507
lradius 30.4069
lwrist 25.0077
lhand -38.2558 329.163
lfingers 7.12502
lthumb -11.286 -1.16073
rfemur -26.7028 -9.92631 49.9486
rtibia 42.5728
rfoot -2.70531 -13.0655
rtoes -18.6069
lfemur -89.3098 22.9085 -9.97266
ltibia 53.3514
lfoot -22.2709 30.7611
ltoes 18.0011
347
root -7.08806 16.3482 -0.432741 57.2786 -5.16402 -40.1215
lowerback 14.9071 -2.23233 -5.05594
upperback -1.41253 -4.46894 -5.71737
thorax -10.0403 -2.03928 -2.31494
lowerneck -23.7777 -2.71957 -7.36873
upperneck 12.0386 -5.2577 20.8956
head 8.58633 -0.802981 7.76576
rclavicle 3.18055e-014 3.97569e-014
rhumerus -22.2846 -18.1604 1.40176
rradius 34.3825
rwrist 6.44676
rhand -28.6827 -64.4432
rfingers 7.12502
rthumb -2.04529 -1705.59
lclavicle 3.18055e-014 3.97569e-014
lhumerus -10.1225 -13.7568 20.9016
lradius 30.1187
lwrist 23.9883
lhand -37.9345 330.446
lfingers 7.12502
lthumb -10.9761 0.139015
rfemur -26.2612 -10.5794 49.7792
rtibia 42.372
rfoot -3.30305 -12.5413
rtoes -16.734
lfemur -88.0816 22.2603 -9.59106
ltibia 53.2339
lfoot -22.5242 31.7833
ltoes 19.172
348
root -7.0801 16.3537 -0.531022 56.9891 -6.46255 -39.9328
lowerback 13.8567 -2.34181 -4.30049
upperback -1.40828 -4.40505 -5.81171
thorax -9.49061 -2.06813 -2.88849
lowerneck -23.712 -2.86093 -7.41391
upperneck 12.385 -5.4822 20.7521
head 8.71925 -0.916355 7.70078
rclavicle 9.54166e-015 -2.54444e-014
rhumerus -23.1993 -17.9584 1.0469
rradius 34.8588
rwrist 6.5074
rhand -29.5833 -64.0596
rfingers 7.12502
rthumb -2.91508 -1705.98
lclavicle 9.54166e-015 -2.54444e-014
lhumerus -11.5019 -13.0077 22.3562
lradius 29.8414
lwrist 23.1041
lhand -38.0168 330.514
lfingers 7.12502
lthumb -11.0555 0.202584
rfemur -25.9535 -11.2455 49.9803
rtibia 42.0747
rfoot -4.18122 -12.7879
rtoes -17.7142
lfemur -87.1278 21.6193 -8.96729
ltibia 53.1616
lfoot -23.1366 32.6597
ltoes 20.6577
349
root -7.07254 16.3581 -0.629842 56.7039 -7.71071 -39.7372
lowerback 13.0744 -2.44008 -3.49752
upperback -1.62272 -4.37377 -5.88293
thorax -9.33924 -2.10591 -3.4492
lowerneck -23.468 -2.96336 -7.41285
upperneck 12.8966 -5.67856 20.5128
head 8.86482 -1.025 7.59951
rclavicle -3.18055e-015 -1.74931e-014
rhumerus -23.5736 -17.4037 0.739944
rradius 34.8678
rwrist 6.32443
rhand -31.2069 -62.8467
rfingers 7.12502
rthumb -4.48294 -1707.22
lclavicle -3.18055e-015 -1.74931e-014
lhumerus -12.99 -12.5536 23.7866
lradius 29.5714
lwrist 22.6078
lhand -38.3732 329.267
lfingers 7.12502
lthumb -11.3992 -1.06336
rfemur -25.6539 -11.9157 50.2122
rtibia 41.6738
rfoot -4.69675 -13.1293
rtoes -18.2542
lfemur -86.3079 21.0955 -8.57201
ltibia 53.069
lfoot -24.0973 33.2685
ltoes 22.5564
350
root -7.06565 16.3737 -0.720967 56.2367 -9.37342 -39.2477
lowerback 12.5333 -2.35453 -3.54395
upperback -1.87634 -4.26123 -5.95324
thorax -9.30327 -2.05704 -3.54027
lowerneck -22.8304 -3.06243 -7.43559
upperneck 13.1891 -5.82284 20.2164
head 8.85509 -1.14528 7.47124
rclavicle -2.22639e-014 -5.08889e-014
rhumerus -23.5227 -16.6213 0.814714
rradius 34.3754
rwrist 6.17788
rhand -31.6547 -62.7552
rfingers 7.12502
rthumb -4.91533 -1707.32
lclavicle -2.22639e-014 -5.08889e-014
lhumerus -14.3703 -11.9591 25.4011
lradius 29.3649
lwrist 22.1313
lhand -38.2856 328.907
lfingers 7.12502
lthumb -11.3148 -1.41781
rfemur -25.1789 -12.4377 49.7816
rtibia 41.2337
rfoot -4.97133 -13.4925
rtoes -15.6861
lfemur -85.2897 20.5537 -8.78907
ltibia 52.9222
lfoot -24.9379 33.9027
ltoes 24.4974
351
root -7.05488 16.404 -0.794931 55.2546 -11.3588 -38.7878
lowerback 12.3928 -1.29168 -3.38573
upperback -2.3648 -2.97095 -6.9159
thorax -9.77898 -1.49397 -4.96592
lowerneck -18.3508 -3.43073 -6.11625
upperneck 11.6462 -6.5447 19.9962
head 7.60755 -1.75856 6.93027
rclavicle -8.90555e-014 -4.13472e-014
rhumerus -28.0205 -14.9756 2.03686
rradius 35.1962
rwrist 6.37032
rhand -30.8851 -63.2375
rfingers 7.12502
rthumb -4.1722 -1706.82
lclavicle -8.90555e-014 -4.13472e-014
lhumerus -13.4916 -13.8339 26.5101
lradius 29.463
lwrist 21.8585
lhand -38.3496 329.244
lfingers 7.12502
lthumb -11.3765 -1.08447
rfemur -24.0707 -13.0117 48.8845
rtibia 40.8211
rfoot -5.35424 -13.9213
rtoes -16.1348
lfemur -83.6493 20.3478 -9.35969
ltibia 52.7435
lfoot -25.3991 34.3538
ltoes 25.845
352
root -7.04332 16.4339 -0.877597 55.0024 -13.5017 -38.5818
lowerback 11.4227 -0.352133 -3.19572
upperback -2.7827 -1.74163 -7.66129
thorax -9.63095 -0.95681 -6.16344
lowerneck -15.136 -3.86863 -5.45848
upperneck 10.3213 -7.13371 20.0167
head 6.67428 -2.26206 6.69595
rclavicle -3.81667e-014 6.67916e-014
rhumerus -31.5086 -14.1465 3.06399
rradius 35.8424
rwrist 6.57839
rhand -30.3735 -63.316
rfingers 7.12502
rthumb -3.67813 -1706.74
lclavicle -3.81667e-014 6.67916e-014
lhumerus -13.0089 -14.731 27.7048
lradius 29.5425
lwrist 21.4551
lhand -38.9976 328.334
lfingers 7.12502
lthumb -12.0013 -2.03046
rfemur -23.6974 -13.1042 48.2001
rtibia 40.4152
rfoot -5.25471 -14.6881
rtoes -16.0519
lfemur -82.7379 20.6111 -10.1426
ltibia 52.5554
lfoot -25.6234 34.8352
ltoes 26.7001
353
root -7.03194 16.4432 -0.979411 56.0745 -15.7558 -38.8094
lowerback 9.0605 0.453966 -3.11741
upperback -3.48352 -0.574034 -8.07493
thorax -8.92445 -0.418196 -6.85672
lowerneck -13.6528 -4.18753 -5.1317
upperneck 10.4554 -7.64322 19.8025
head 6.49681 -2.58715 6.51292
rclavicle -5.725e-014 -3.18055e-015
rhumerus -33.3307 -12.8687 3.76817
rradius 35.9281
rwrist 6.06017
rhand -31.7322 -63.4663
rfingers 7.12502
rthumb -4.99012 -1706.61
lclavicle -5.725e-014 -3.18055e-015
lhumerus -13.3066 -15.2788 29.0654
lradius 29.6579
lwrist 21.3201
lhand -39.3441 327.463
lfingers 7.12502
lthumb -12.3354 -2.92075
rfemur -24.5598 -12.2933 47.9254
rtibia 40.0099
rfoot -4.64843 -15.6166
rtoes -15.7308
lfemur -83.1134 21.1603 -10.754
ltibia 52.4265
lfoot -25.9254 35.7139
ltoes 27.5066
354
root -7.01942 16.4533 -1.06736 56.2641 -17.6523 -39.0999
lowerback 9.1115 -1.74615 -3.75006
upperback -3.39192 -3.42361 -6.42583
thorax -8.95796 -1.69029 -4.1911
lowerneck -20.8358 -2.95579 -7.98806
upperneck 13.9763 -5.59267 19.6797
head 8.70126 -1.19187 7.40606
rclavicle 3.18055e-014 0
rhumerus -25.1435 -16.5873 0.0441916
rradius 35.2593
rwrist 7.09073
rhand -34.4571 -63.0956
rfingers 7.12502
rthumb -7.62081 -1707.06
lclavicle 3.18055e-014 0
lhumerus -20.8744 -8.32479 29.9983
lradius 29.9001
lwrist 20.3221
lhand -39.2181 326.951
lfingers 7.12502
lthumb -12.2139 -3.42544
rfemur -24.3573 -11.9764 47.6702
rtibia 39.5173
rfoot -4.06838 -16.5894
rtoes -16.0119
lfemur -82.5303 21.5505 -10.815
ltibia 52.3858
lfoot -26.3788 36.3675
ltoes 28.2135
355
root -7.0026 16.4638 -1.14467 56.3158 -19.5566 -39.5163
lowerback 8.25602 -1.43097 -3.25381
upperback -3.64674 -2.91142 -6.51582
thorax -8.73762 -1.48113 -4.67072
lowerneck -20.9257 -3.01386 -7.7859
upperneck 14.7061 -5.74047 19.1487
head 8.95369 -1.26869 7.18434
rclavicle 5.08889e-014 -4.13472e-014
rhumerus -25.0272 -16.3164 0.125374
rradius 34.8918
rwrist 6.30774
rhand -34.8361 -62.9256
rfingers 7.12502
rthumb -7.98655 -1707.25
lclavicle 5.08889e-014 -4.13472e-014
lhumerus -22.1966 -7.92825 31.0652
lradius 30.0758
lwrist 19.5801
lhand -39.1078 326.441
lfingers 7.12502
lthumb -12.1076 -3.92925
rfemur -23.8458 -11.6644 47.3329
rtibia 38.9692
rfoot -3.41931 -17.6349
rtoes -15.5321
lfemur -81.681 22.0104 -10.7979
ltibia 52.3583
lfoot -27.2469 36.9077
ltoes 29.2352
356
root -6.97903 16.4793 -1.23278 56.5453 -21.4332 -39.706
lowerback 7.48172 -1.28737 -2.94792
upperback -3.83862 -2.65458 -6.57792
thorax -8.49366 -1.38153 -4.96277
lowerneck -20.8135 -3.10919 -7.85144
upperneck 14.4059 -5.839 19.2434
head 8.85424 -1.32858 7.20157
rclavicle 9.54166e-015 4.45278e-014
rhumerus -26.5887 -17.2317 -0.0902744
rradius 36.1828
rwrist 6.62485
rhand -32.4385 -63.6349
rfingers 7.12502
rthumb -5.67208 -1706.46
lclavicle 9.54166e-015 4.45278e-014
lhumerus -23.4483 -7.12516 31.9605
lradius 30.148
lwrist 18.7678
lhand -38.7201 326.408
lfingers 7.12502
lthumb -11.7337 -3.94085
rfemur -23.6986 -11.2616 46.9493
rtibia 38.3696
rfoot -3.19274 -18.9206
rtoes -12.9197
lfemur -81.1805 22.3266 -11.0531
ltibia 52.2616
lfoot -28.4802 37.319
ltoes 30.8502
357
root -6.94924 16.5111 -1.3189 56.4311 -23.7258 -39.8252
lowerback 7.12688 -1.06229 -3.06401
upperback -3.93489 -2.36309 -6.68267
thorax -8.37173 -1.24067 -5.05782
lowerneck -21.0014 -3.17026 -7.78447
upperneck 14.3739 -5.87483 18.9484
head 8.86671 -1.36122 7.075
rclavicle -4.45278e-014 -1.90833e-014
rhumerus -27.0566 -17.9732 -0.235406
rradius 36.5619
rwrist 7.02798
rhand -30.615 -64.5784
rfingers 7.12502
rthumb -3.91135 -1705.48
lclavicle -4.45278e-014 -1.90833e-014
lhumerus -24.6247 -6.54356 32.9108
lradius 30.2321
lwrist 18.5269
lhand -38.3462 326.582
lfingers 7.12502
lthumb -11.3731 -3.74659
rfemur -23.2886 -11.0485 46.0673
rtibia 37.7984
rfoot -3.44603 -20.0967
rtoes -9.24827
lfemur -80.0957 22.627 -11.4763
ltibia 52.0754
lfoot -29.9476 37.7932
ltoes 32.335
358
root -6.92161 16.536 -1.4061 56.325 -26.1349 -39.9783
lowerback 6.95983 -0.861039 -3.19332
upperback -4.11152 -2.13208 -6.83875
thorax -8.45469 -1.13208 -5.19256
lowerneck -21.4266 -3.21808 -7.73052
upperneck 14.723 -5.94013 18.6667
head 9.05602 -1.3827 6.97163
rclavicle 2.22639e-014 -3.18055e-014
rhumerus -25.4919 -17.9516 -0.517639
rradius 35.2085
rwrist 6.90577
rhand -30.4654 -64.8034
rfingers 7.12502
rthumb -3.76692 -1705.25
lclavicle 2.22639e-014 -3.18055e-014
lhumerus -26.0541 -6.2245 33.727
lradius 30.5036
lwrist 18.3814
lhand -38.5786 326.071
lfingers 7.12502
lthumb -11.5973 -4.26983
rfemur -22.8832 -10.4658 45.0368
rtibia 37.3414
rfoot -4.1664 -21.5517
rtoes -5.92714
lfemur -79.0524 23.0915 -12.1457
ltibia 51.8823
lfoot -30.6662 38.5088
ltoes 32.751
